<?xml version="1.0" encoding="UTF-8" standalone="no"?>
<!-- Created with Inkscape (http://www.inkscape.org/) -->

<svg
   width="3840"
   height="2160"
   viewBox="0 0 3840 2160"
   version="1.1"
   id="svg5"
   inkscape:version="1.2.2 (732a01da63, 2022-12-09)"
   sodipodi:docname="game-shape.svg"
   xml:space="preserve"
   xmlns:inkscape="http://www.inkscape.org/namespaces/inkscape"
   xmlns:sodipodi="http://sodipodi.sourceforge.net/DTD/sodipodi-0.dtd"
   xmlns="http://www.w3.org/2000/svg"
   xmlns:svg="http://www.w3.org/2000/svg"><sodipodi:namedview
     id="namedview7"
     pagecolor="#8e8e8e"
     bordercolor="#000000"
     borderopacity="0.25"
     inkscape:showpageshadow="2"
     inkscape:pageopacity="0"
     inkscape:pagecheckerboard="0"
     inkscape:deskcolor="#d1d1d1"
     inkscape:document-units="px"
     showgrid="true"
     inkscape:zoom="3.0752245"
     inkscape:cx="292.82415"
     inkscape:cy="239.98248"
     inkscape:window-width="2560"
     inkscape:window-height="1369"
     inkscape:window-x="1912"
     inkscape:window-y="-8"
     inkscape:window-maximized="1"
     inkscape:current-layer="layer1"><inkscape:grid
       type="xygrid"
       id="grid353"
       visible="false" /></sodipodi:namedview><defs
     id="defs2"><filter
       style="color-interpolation-filters:sRGB"
       id="filter3952"
       inkscape:label="filtre0"
       x="-0.0010169492"
       y="-0.0018947368"
       width="1.0020339"
       height="1.0037895"><feMorphology
         id="feMorphology3958"
         radius="6"
         result="result6" /><feGaussianBlur
         stdDeviation="4"
         id="feGaussianBlur6690"
         in="result6"
         result="result7" /><feComposite
         in2="SourceAlpha"
         id="feComposite3962"
         operator="in" /><feSpecularLighting
         id="feSpecularLighting3964"
         result="result2"
         surfaceScale="1"
         lighting-color="rgb(254,254,254)"><feDistantLight
           id="feDistantLight3966"
           azimuth="225" /></feSpecularLighting><feComposite
         in2="SourceGraphic"
         id="feComposite3968"
         operator="in"
         result="result3" /><feBlend
         mode="normal"
         in2="SourceGraphic"
         id="feBlend3972"
         result="result8" /><feColorMatrix
         id="feColorMatrix6674"
         values="360"
         type="hueRotate"
         result="result4"
         in="result8" /></filter></defs><g
     inkscape:label="Calque 1"
     inkscape:groupmode="layer"
     id="layer1"><path
       id="rect297"
       style="fill:#ecc7c7;fill-opacity:1;stroke:none;stroke-width:0;stroke-dasharray:none;filter:url(#filter3952)"
       d="m 205,125 c -22.15998,0 -40,17.84002 -40,40 v 1820 c 0,22.16 17.84002,40 40,40 h 835 c 22.16,0 40,-17.84 40,-40 v -155 a 40,40 0 0 1 40,-40 h 1630 a 40,40 0 0 1 40,40 v 155 c 0,22.16 17.84,40 40,40 h 835 c 22.16,0 40,-17.84 40,-40 V 165 c 0,-22.15998 -17.84,-40 -40,-40 h -835 c -22.16,0 -40,17.84002 -40,40 v 155 a 40,40 0 0 1 -40,40 H 1120 a 40,40 0 0 1 -40,-40 V 165 c 0,-22.15998 -17.84,-40 -40,-40 z" /></g></svg>
