<?xml version="1.0" encoding="UTF-8"?>
<svg version="1.1"
     viewBox="0 0 64 64"
     xmlns="http://www.w3.org/2000/svg">
    <circle cx="32"
            cy="32"
            r="28"
            fill="none"
            stroke="#2d8cff"
            stroke-width="6"/>
    <path d="m 34.747271,40.369642 h -5.887778 q -0.0231,-1.269904 -0.0231,-1.547019 0,-2.863124 0.946675,-4.710273 0.946674,-1.847149 3.786698,-4.156127 2.840024,-2.30898 3.394169,-3.024739 0.854274,-1.13139 0.854274,-2.493695 0,-1.893348 -1.523919,-3.232553 -1.500819,-1.362304 -4.063728,-1.362304 -2.470594,0 -4.133028,1.408419 -1.662434,1.40842 -2.285879,4.294643 l -5.957077,-0.738859 q 0.25399,-4.133028 3.509583,-7.019167 3.278668,-2.886224 8.589627,-2.886224 5.587648,0 8.889671,2.932339 3.301769,2.909238 3.301769,6.788337 0,2.147278 -1.223705,4.063728 -1.200689,1.916449 -5.172017,5.218217 -2.054965,1.708634 -2.562908,2.747624 -0.48488,1.038989 -0.438696,3.717397 z m -5.887778,8.727715 v -6.488122 h 6.488122 v 6.488122 z"
          fill="#2d8cff"/>
</svg>
