<?xml version="1.0" encoding="UTF-8" standalone="no"?>
<!-- Created with Inkscape (http://www.inkscape.org/) -->

<svg
   width="917.70819"
   height="555.62408"
   viewBox="0 0 917.70819 555.62408"
   version="1.1"
   id="svg5"
   inkscape:version="1.2.2 (732a01da63, 2022-12-09)"
   sodipodi:docname="leaderboard-grid.svg"
   xml:space="preserve"
   xmlns:inkscape="http://www.inkscape.org/namespaces/inkscape"
   xmlns:sodipodi="http://sodipodi.sourceforge.net/DTD/sodipodi-0.dtd"
   xmlns="http://www.w3.org/2000/svg"
   xmlns:svg="http://www.w3.org/2000/svg"><sodipodi:namedview
     id="namedview7"
     pagecolor="#ffffff"
     bordercolor="#000000"
     borderopacity="0.25"
     inkscape:showpageshadow="2"
     inkscape:pageopacity="0.0"
     inkscape:pagecheckerboard="0"
     inkscape:deskcolor="#d1d1d1"
     inkscape:document-units="px"
     showgrid="true"
     inkscape:zoom="8"
     inkscape:cx="29.0625"
     inkscape:cy="47.125"
     inkscape:window-width="1920"
     inkscape:window-height="1009"
     inkscape:window-x="-8"
     inkscape:window-y="1067"
     inkscape:window-maximized="1"
     inkscape:current-layer="layer1"><inkscape:grid
       type="xygrid"
       id="grid5806"
       originx="0"
       originy="0" /></sodipodi:namedview><defs
     id="defs2" /><g
     inkscape:label="Calque 1"
     inkscape:groupmode="layer"
     id="layer1"
     style="fill:#ffffff;fill-opacity:1"><g
       id="g9667"
       style="fill:#ffffff;fill-opacity:1;opacity:0.5"><path
         id="rect947"
         style="fill:#ffffff;fill-opacity:1;stroke-width:1"
         d="m 843,112 v 2 h -2 v 1 h 2 v 2 h 1 v -2 h 2 v -1 h -2 v -2 z" /><path
         id="rect947-0"
         style="fill:#ffffff;fill-opacity:1;stroke-width:1"
         d="m 843,472 v 2 h -2 v 1 h 2 v 2 h 1 v -2 h 2 v -1 h -2 v -2 z" /><path
         id="rect947-9"
         style="fill:#ffffff;fill-opacity:1;stroke-width:1"
         d="m 33,472 v 2 h -2 v 1 h 2 v 2 h 1 v -2 h 2 v -1 h -2 v -2 z" /><path
         id="rect947-7"
         style="fill:#ffffff;fill-opacity:1;stroke-width:1"
         d="m 33,27 v 2 h -2 v 1 h 2 v 2 h 1 v -2 h 2 v -1 h -2 v -2 z" /><path
         id="rect947-6"
         style="fill:#ffffff;fill-opacity:1;stroke-width:1"
         d="m 421,112 v 2 h -2 v 1 h 2 v 2 h 1 v -2 h 2 v -1 h -2 v -2 z" /><path
         id="rect947-6-6"
         style="fill:#ffffff;fill-opacity:1;stroke-width:1"
         d="m 317,112 v 2 h -2 v 1 h 2 v 2 h 1 v -2 h 2 v -1 h -2 v -2 z" /><path
         id="rect947-07"
         style="fill:#ffffff;fill-opacity:1;stroke-width:1"
         d="m 421,27 v 2 h -2 v 1 h 2 v 2 h 1 v -2 h 2 v -1 h -2 v -2 z" /><path
         id="rect947-04"
         style="fill:#ffffff;fill-opacity:1;stroke-width:1"
         d="m 317,472 v 2 h -2 v 1 h 2 v 2 h 1 v -2 h 2 v -1 h -2 v -2 z" /><path
         id="rect947-04-6"
         style="fill:#ffffff;fill-opacity:1;stroke-width:1"
         d="m 317,172 v 2 h -2 v 1 h 2 v 2 h 1 v -2 h 2 v -1 h -2 v -2 z" /><path
         id="rect947-04-6-9"
         style="fill:#ffffff;fill-opacity:1;stroke-width:1"
         d="m 317,232 v 2 h -2 v 1 h 2 v 2 h 1 v -2 h 2 v -1 h -2 v -2 z" /><path
         id="rect947-02"
         style="fill:#ffffff;fill-opacity:1;stroke-width:1"
         d="m 843,412 v 2 h -2 v 1 h 2 v 2 h 1 v -2 h 2 v -1 h -2 v -2 z" /><path
         id="rect947-98"
         style="fill:#ffffff;fill-opacity:1;stroke-width:1"
         d="m 843,352 v 2 h -2 v 1 h 2 v 2 h 1 v -2 h 2 v -1 h -2 v -2 z" /><path
         id="rect947-65"
         style="fill:#ffffff;fill-opacity:1;stroke-width:1"
         d="m 843,292 v 2 h -2 v 1 h 2 v 2 h 1 v -2 h 2 v -1 h -2 v -2 z" /><path
         id="rect947-64"
         style="fill:#ffffff;fill-opacity:1;stroke-width:1"
         d="m 843,232 v 2 h -2 v 1 h 2 v 2 h 1 v -2 h 2 v -1 h -2 v -2 z" /><path
         id="rect947-1"
         style="fill:#ffffff;fill-opacity:1;stroke-width:1"
         d="m 843,172 v 2 h -2 v 1 h 2 v 2 h 1 v -2 h 2 v -1 h -2 v -2 z" /><path
         id="rect947-04-8"
         style="fill:#ffffff;fill-opacity:1;stroke-width:1"
         d="m 317,412 v 2 h -2 v 1 h 2 v 2 h 1 v -2 h 2 v -1 h -2 v -2 z" /><path
         id="rect947-04-6-7"
         style="fill:#ffffff;fill-opacity:1;stroke-width:1"
         d="m 317,292 v 2 h -2 v 1 h 2 v 2 h 1 v -2 h 2 v -1 h -2 v -2 z" /><path
         id="rect947-04-6-0"
         style="fill:#ffffff;fill-opacity:1;stroke-width:1"
         d="m 317,352 v 2 h -2 v 1 h 2 v 2 h 1 v -2 h 2 v -1 h -2 v -2 z" /></g><g
       id="g9699"
       style="fill:#ffffff;fill-opacity:1;opacity:0.3"><rect
         style="fill:#ffffff;fill-opacity:1;stroke-width:5.22645"
         id="rect8860-1"
         width="519"
         height="1"
         x="321"
         y="354" /><rect
         style="fill:#ffffff;fill-opacity:1;stroke-width:5.22645"
         id="rect8860-06"
         width="519"
         height="1"
         x="321"
         y="294" /><rect
         style="fill:#ffffff;fill-opacity:1;stroke-width:5.22645"
         id="rect8860-10"
         width="519"
         height="1"
         x="321"
         y="234" /><rect
         style="fill:#ffffff;fill-opacity:1;stroke-width:5.22645"
         id="rect8860-10-5"
         width="519"
         height="1"
         x="321"
         y="174" /><rect
         style="fill:#ffffff;fill-opacity:1;stroke-width:8.544"
         id="rect8837"
         width="1"
         height="438"
         x="33"
         y="33" /><rect
         style="fill:#ffffff;fill-opacity:1;stroke-width:6.17252"
         id="rect8839"
         width="381"
         height="1"
         x="37"
         y="29" /><rect
         style="fill:#ffffff;fill-opacity:1;stroke-width:2.66287"
         id="rect8841"
         width="1"
         height="78"
         x="421"
         y="33" /><rect
         style="fill:#ffffff;fill-opacity:1;stroke-width:6.44205"
         id="rect8843"
         width="415"
         height="1"
         x="425"
         y="114" /><rect
         style="fill:#ffffff;fill-opacity:1;stroke-width:3.72156"
         id="rect8845"
         width="277"
         height="1"
         x="37"
         y="474" /><rect
         style="fill:#ffffff;fill-opacity:1;stroke-width:5.22645"
         id="rect8860"
         width="519"
         height="1"
         x="321"
         y="474" /><rect
         style="fill:#ffffff;fill-opacity:1;stroke-width:5.22645"
         id="rect8860-0"
         width="519"
         height="1"
         x="321"
         y="414" /><rect
         style="fill:#ffffff;fill-opacity:1;stroke-width:3.41565"
         id="rect9020"
         width="280"
         height="1"
         x="34"
         y="114" /><rect
         style="fill:#ffffff;fill-opacity:1;stroke-width:3.83886"
         id="rect9022"
         width="280"
         height="1"
         x="34"
         y="174" /><rect
         style="fill:#ffffff;fill-opacity:1;stroke-width:2.10159"
         id="rect9129"
         width="1"
         height="53"
         x="317"
         y="418" /><rect
         style="fill:#ffffff;fill-opacity:1;stroke-width:1.55213"
         id="rect9144"
         width="1"
         height="53"
         x="317"
         y="118" /><rect
         style="fill:#ffffff;fill-opacity:1;stroke-width:1.55213"
         id="rect9144-5"
         width="1"
         height="53"
         x="317"
         y="178" /><rect
         style="fill:#ffffff;fill-opacity:1;stroke-width:1.67017"
         id="rect9216"
         width="1"
         height="53"
         x="317"
         y="358" /><rect
         style="fill:#ffffff;fill-opacity:1;stroke-width:1.94569"
         id="rect9218"
         width="1"
         height="53"
         x="317"
         y="298" /><rect
         style="fill:#ffffff;fill-opacity:1;stroke-width:2.30218"
         id="rect9220"
         width="1"
         height="53"
         x="317"
         y="238" /><rect
         style="fill:#ffffff;fill-opacity:1;stroke-width:6.8313"
         id="rect9222"
         width="280"
         height="1"
         x="34"
         y="234" /><rect
         style="fill:#ffffff;fill-opacity:1;stroke-width:8.3666"
         id="rect9224"
         width="280"
         height="1"
         x="34"
         y="294" /><rect
         style="fill:#ffffff;fill-opacity:1;stroke-width:8.3666"
         id="rect9224-0"
         width="280"
         height="1"
         x="34"
         y="354" /><rect
         style="fill:#ffffff;fill-opacity:1;stroke-width:8.3666"
         id="rect9224-6"
         width="280"
         height="1"
         x="34"
         y="414" /><rect
         style="fill:#ffffff;fill-opacity:1;stroke-width:3.25576"
         id="rect9261"
         width="1"
         height="53"
         x="843"
         y="118" /><rect
         style="fill:#ffffff;fill-opacity:1;stroke-width:3.25576"
         id="rect9261-5"
         width="1"
         height="53"
         x="843"
         y="178" /><rect
         style="fill:#ffffff;fill-opacity:1;stroke-width:3.25576"
         id="rect9261-7"
         width="1"
         height="53"
         x="843"
         y="238" /><rect
         style="fill:#ffffff;fill-opacity:1;stroke-width:3.25576"
         id="rect9261-2"
         width="1"
         height="53"
         x="843"
         y="298" /><rect
         style="fill:#ffffff;fill-opacity:1;stroke-width:3.25576"
         id="rect9261-9"
         width="1"
         height="53"
         x="843"
         y="358" /><rect
         style="fill:#ffffff;fill-opacity:1;stroke-width:3.25576"
         id="rect9261-1"
         width="1"
         height="53"
         x="843"
         y="418" /><rect
         style="fill:#ffffff;fill-opacity:1;stroke-width:3.72252"
         id="rect9372"
         width="97"
         height="1"
         x="321"
         y="114" /></g></g></svg>
