<?xml version="1.0" encoding="UTF-8"?>
<svg id="Layer_1" xmlns="http://www.w3.org/2000/svg" width="123.7mm" height="19.21mm" viewBox="0 0 350.65 54.44" fill="white">
    <path d="M208.21,22.52l-47.04-.07,10.64-7.85c4.57-3.37,10.1-5.18,15.77-5.17l38.25.33c3.24,0,6.4-1.03,9.01-2.96l8.55-6.31-57.95-.36c-6.49,0-12.81,2.06-18.03,5.91l-34.77,25.65,70.68.11-8.45,6.23c-9.79,7.22-16.55,7.05-28.72,7.03l-47.27-.05c-3.24,0-6.4,1.03-9.01,2.96l-8.45,6.23,66.3.07c12.97.02,25.61-4.13,36.05-11.83l8.92-6.27c10.17-7.5,8.15-13.65-4.48-13.67Z"/>
    <path d="M339.68.37l-43.02-.07c-12.97-.02-25.61,4.13-36.05,11.83l-44.24,32.63c-10.16,7.5-3.06,9.59,9.57,9.61l43.02.07c12.97.02,20.53-.07,30.97-7.77l44.24-32.63c10.16-7.5,8.15-13.65-4.48-13.67ZM295.54,38.12c-9.79,7.22-16.55,7.05-28.72,7.03l-35.33-.05,33.51-24.41c9.79-7.22,21.64-11.11,33.8-11.09l35.33.05-38.59,28.46Z"/>
    <path d="M112.16,22.38l-52.73-.08,2.6-1.91c9.79-7.22,21.64-11.11,33.8-11.09l38.32.06c3.24,0,6.4-1.03,9.01-2.96L151.7.09,93.69,0c-12.97-.02-25.61,4.13-36.05,11.83L0,54.03l10.96.02c3.24,0,6.4-1.03,9.01-2.96l26.89-19.52,47.74.07c3.24,0,6.4-1.03,9.01-2.96l8.55-6.31Z"/>
</svg>