<?xml version="1.0" encoding="UTF-8"?>
<svg id="Calque_1" xmlns="http://www.w3.org/2000/svg" width="1577.1" height="172.04" viewBox="0 0 1577.1 172.04" fill="white">
    <polygon points="120.33 31.23 201.16 171.23 271.4 171.23 173.01 .81 120.33 31.23"/>
    <polygon points="60.09 89.18 107.46 171.23 177.7 171.23 112.77 58.77 60.09 89.18"/>
    <polygon points="0 147.25 13.84 171.23 84.08 171.23 52.68 116.83 0 147.25"/>
    <rect x="349.98" y=".23" width="4.23" height="171.57"/>
    <path d="M560.05,2.63c16.22-3.2,33.58-4.38,49.3,1.68,7.66,3.25,15.16,7.81,19.98,14.78,7.29,9.72,8.4,22.72,6.94,34.41-3.69,22.18-16.03,41.89-30.81,58.42-7.44,7.67-14.76,15.6-23.49,21.85-.04-11.6-.59-23.23.09-34.82,3.9-5.67,9.25-10.17,13.2-15.81,8.69-11.74,16.52-25.02,17.84-39.9.89-6.28-.69-12.79-4.07-18.13-4.91-7.23-13.45-11.02-21.9-12.1-16.01-2.62-32.05,1.9-46.9,7.6-25.48,10.44-48.58,26.57-67.24,46.81-10.55,11.5-19.58,24.88-23.81,40.03-1.35,5.84-2.26,11.96-1.09,17.92,1.08,5.25,5.13,10.27,10.69,10.89,9.3,1.9,17.96-3.11,25.25-8.24,14.32-11.22,26.07-25.28,37.49-39.33,13.94-17.71,27.26-35.95,39.17-55.11.14,38.42.14,76.83,0,115.24-23.37,13.26-49.47,23.75-76.77,23.16-15.09.11-31.14-4.67-41.34-16.34-6.98-7.48-9.46-17.97-9.77-27.92-.25-14.78,5.34-28.95,12.35-41.7,12.84-21.86,31.16-40.19,51.83-54.71,18.98-13.38,40.32-23.72,63.07-28.71Z"/>
    <path d="M878.83,43.2c12.3-15.8,33.8-21.91,53.12-19.34,10.34,1.39,20.53,5.43,28.09,12.8,9.38,9.1,14.25,22.02,15.51,34.85-10.18.06-20.36.07-30.53.02-1.86-6.31-3.88-13.11-9.54-17.11-9.65-5.84-23.47-4.03-30.94,4.57-4.19,4.49-6.15,10.57-6.92,16.55-.6,8.64-1.23,17.71,1.88,25.98,2.45,6.38,6.35,12.73,12.65,15.89,10.16,5.31,23.08,4.8,32.81-1.28,8.68-5.43,15.25-13.62,20.47-22.3,14.27-22.71,28.4-45.51,42.78-68.14,14.45,0,28.9-.02,43.36.02.02,40.27.02,80.54,0,120.81-10.11.02-20.22.04-30.32,0-.03-7.37-.02-14.74-.24-22.11-13.73-.17-27.49-.58-41.21,0-5.29,3.91-9.25,9.38-14.79,13.02-9.17,6.35-20.08,10.12-31.2,10.89-16.48,1.82-34.1-1.64-47.31-12.07-8.94-6.87-14.81-17.05-18.11-27.69-5.91-21.82-3.97-47.19,10.45-65.38M993.87,100.04c9.11.06,18.21.04,27.33.01-.04-14.54.2-29.1-.2-43.63-9.35,14.34-18.06,29.1-27.13,43.62Z"/>
    <path d="M1403.21,23.49c17.88-1.25,36.75,4.54,49.21,17.82,12.74,13.62,16.99,33.14,15.61,51.31-1.1,18.27-9.95,36.84-25.82,46.7-18.72,11.64-43.42,12.47-63.35,3.44-10.56-5.11-19.5-13.64-24.84-24.09-6.33-11.45-7.74-24.94-7.38-37.82.86-15.64,7.03-31.26,18.48-42.18,10.36-9.46,24.19-14.47,38.11-15.18M1403.23,51.43c-8.3.66-15.93,5.58-20.01,12.8-5.55,9.88-5.93,21.89-3.89,32.81,1.31,7.41,4.9,14.77,11.28,19.08,8.46,6.16,20.07,6.1,29.52,2.38,9.78-4.16,15.08-14.72,16.01-24.88,1.02-11.71.27-25.06-7.94-34.3-6.27-6.75-16.04-9.21-24.96-7.9Z"/>
    <path d="M671.08,25.71c15.49.02,30.98-.1,46.48,0,17.58.09,35.79,7.23,46.45,21.67,7.19,9.79,10.76,21.8,11.48,33.83.81,12.88-1.38,26.18-7.6,37.6-5.54,9.65-14.04,17.75-24.33,22.15-9.8,4.71-20.88,5.52-31.59,5.6-13.63.05-27.27-.04-40.9-.02-.02-40.27-.02-80.54,0-120.82M702.2,51.9c-.35,22.66-.06,45.33-.13,68,6.37.02,12.75.26,19.12-.25,7.49-.8,14.58-5.4,17.97-12.2,4.93-8.31,5.45-18.45,4.5-27.83-.84-8.32-3.76-17.04-10.59-22.34-8.66-6.86-20.57-5.61-30.87-5.39Z"/>
    <path d="M782.63,25.71c27.2.07,54.4-.22,81.59.15.27,8.61.22,17.23.19,25.85-16.94.05-33.87-.02-50.81.02-.01,7.43-.01,14.85,0,22.29,14.87.03,29.74-.02,44.61.01,0,8.05.02,16.11,0,24.16-14.87.03-29.75-.02-44.62.01,0,7.23,0,14.45,0,21.67,16.87.12,33.75-.2,50.62.18.28,8.76.27,17.52.02,26.28-27.21.45-54.42.09-81.62.19-.02-40.28-.02-80.54,0-120.82Z"/>
    <path d="M1059.64,25.71c30.57-.01,61.14-.01,91.71,0,.01,8.67.02,17.34,0,26.02-10.13.02-20.24,0-30.35.01-.04,31.61.02,63.21-.01,94.8-10.33.02-20.65.02-30.97,0-.04-31.6.01-63.2-.02-94.8-10.13-.02-20.24,0-30.35-.01-.02-8.68-.02-17.35,0-26.02Z"/>
    <path d="M1158.79,25.71c10.32-.02,20.64-.02,30.96,0,.05,15.28-.02,30.56.03,45.83,14.04.03,28.07.02,42.12,0,.04-15.28-.03-30.56.02-45.84,10.31-.02,20.64-.02,30.96,0,.02,40.28.02,80.54,0,120.82-10.32.03-20.64.03-30.95,0-.14-16.25.19-32.5-.16-48.74-13.93-.35-27.87-.32-41.79-.03-.44,16.25-.09,32.51-.22,48.77-10.26,0-20.52.16-30.78-.13-.46-40.23-.08-80.46-.19-120.7Z"/>
    <path d="M1271.59,25.71c10.31-.03,20.64-.03,30.96,0,.14,31.53-.2,63.07.16,94.61,15.64.42,31.3.09,46.95.21.02,8.61.06,17.21-.17,25.82-25.97.45-51.94.1-77.9.19-.02-40.28-.02-80.54,0-120.82Z"/>
    <path d="M1475.48,25.72c10.67-.04,21.34-.08,32.01.07,13.22,21.94,26.34,43.96,39.7,65.82.38-21.96.05-43.93.18-65.9,9.9-.02,19.81-.02,29.73,0,0,40.28.02,80.55,0,120.83-10.1.02-20.19.05-30.27-.01-13.75-23.03-27.37-46.14-41.49-68.93-.27,22.98-.02,45.96-.12,68.95-9.92.02-19.82.02-29.73,0-.01-40.28-.02-80.54,0-120.82Z"/>
</svg>